
<svg width="62" height="60" viewBox="0 0 62 60" fill="none" xmlns="http://www.w3.org/2000/svg">
<path d="M4.56992 52.4101C4.84898 52.4093 5.12718 52.3791 5.39992 52.3201L26.9999 47.7301V53.0001H19.4999C18.5717 53.0001 17.6814 53.3689 17.025 54.0252C16.3687 54.6816 15.9999 55.5719 15.9999 56.5001C15.9999 57.4284 16.3687 58.3186 17.025 58.975C17.6814 59.6314 18.5717 60.0001 19.4999 60.0001H42.4999C43.4282 60.0001 44.3184 59.6314 44.9748 58.975C45.6312 58.3186 45.9999 57.4284 45.9999 56.5001C45.9999 55.5719 45.6312 54.6816 44.9748 54.0252C44.3184 53.3689 43.4282 53.0001 42.4999 53.0001H34.9999V46.0301L58.0199 41.1301C58.5501 41.0384 59.0563 40.8407 59.5083 40.5488C59.9603 40.2569 60.3488 39.8768 60.6504 39.4313C60.9521 38.9857 61.1608 38.4839 61.264 37.9559C61.3672 37.4278 61.3628 36.8843 61.2511 36.358C61.1394 35.8317 60.9226 35.3333 60.6138 34.8927C60.3049 34.4521 59.9104 34.0784 59.4537 33.7938C58.9971 33.5092 58.4877 33.3197 57.9561 33.2366C57.4245 33.1535 56.8816 33.1785 56.3599 33.3101L52.9999 34.0201V32.0001H55.9999C57.326 32.0001 58.5978 31.4733 59.5355 30.5356C60.4731 29.598 60.9999 28.3262 60.9999 27.0001V26.0001C60.9999 25.7349 60.8946 25.4805 60.707 25.293C60.5195 25.1055 60.2651 25.0001 59.9999 25.0001H57.4399C57.4802 24.8297 57.5003 24.6552 57.4999 24.4801V7.48011C57.4937 6.67507 57.1745 5.90402 56.6099 5.33011L52.1099 0.870112C51.549 0.312945 50.7905 0.000244141 49.9999 0.000244141C49.2093 0.000244141 48.4508 0.312945 47.8899 0.870112L43.3899 5.33011C42.8253 5.90402 42.5062 6.67507 42.4999 7.48011V24.4801C42.4995 24.6552 42.5197 24.8297 42.5599 25.0001H39.9999C39.7347 25.0001 39.4803 25.1055 39.2928 25.293C39.1053 25.4805 38.9999 25.7349 38.9999 26.0001V27.0001C38.9999 28.3262 39.5267 29.598 40.4644 30.5356C41.4021 31.4733 42.6738 32.0001 43.9999 32.0001H46.9999V35.3001L32.7399 38.3301C32.1838 38.1189 31.5948 38.0072 30.9999 38.0001C29.686 37.9996 28.4249 38.517 27.4899 39.4401L14.9999 42.1001V39.0001H17.9999C18.6565 39.0001 19.3067 38.8708 19.9133 38.6195C20.52 38.3682 21.0712 37.9999 21.5355 37.5356C21.9997 37.0714 22.368 36.5202 22.6193 35.9135C22.8706 35.3069 22.9999 34.6567 22.9999 34.0001V33.0001C22.9999 32.7349 22.8946 32.4805 22.707 32.293C22.5195 32.1055 22.2651 32.0001 21.9999 32.0001H19.4399C19.4802 31.8297 19.5003 31.6552 19.4999 31.4801V14.4801C19.4937 13.6751 19.1745 12.904 18.6099 12.3301L14.1099 7.87011C13.549 7.31295 12.7905 7.00024 11.9999 7.00024C11.2093 7.00024 10.4508 7.31295 9.88992 7.87011L5.38992 12.3301C4.82533 12.904 4.50615 13.6751 4.49992 14.4801V31.4801C4.49955 31.6552 4.51968 31.8297 4.55992 32.0001H1.99992C1.7347 32.0001 1.48035 32.1055 1.29281 32.293C1.10528 32.4805 0.99992 32.7349 0.99992 33.0001V34.0001C0.99992 34.6567 1.12925 35.3069 1.38052 35.9135C1.6318 36.5202 2.00009 37.0714 2.46439 37.5356C2.92868 37.9999 3.47987 38.3682 4.0865 38.6195C4.69313 38.8708 5.34331 39.0001 5.99992 39.0001H8.99992V43.3701L3.73992 44.4901C2.7651 44.6879 1.89893 45.2417 1.31042 46.0436C0.721907 46.8455 0.453279 47.8379 0.556952 48.8272C0.660624 49.8164 1.12916 50.7316 1.87113 51.394C2.6131 52.0565 3.57528 52.4188 4.56992 52.4101ZM49.9999 4.00011C50.1977 4.00011 50.391 4.05876 50.5555 4.16864C50.7199 4.27852 50.8481 4.4347 50.9238 4.61743C50.9995 4.80015 51.0193 5.00122 50.9807 5.1952C50.9421 5.38918 50.8469 5.56737 50.707 5.70722C50.5672 5.84707 50.389 5.94231 50.195 5.9809C50.001 6.01948 49.8 5.99968 49.6172 5.92399C49.4345 5.8483 49.2783 5.72013 49.1684 5.55568C49.0586 5.39123 48.9999 5.19789 48.9999 5.00011C48.9999 4.7349 49.1053 4.48054 49.2928 4.29301C49.4803 4.10547 49.7347 4.00011 49.9999 4.00011ZM50.3799 16.5001H49.6199C48.9119 16.4997 48.229 16.2381 47.702 15.7653C47.1751 15.2925 46.8412 14.6418 46.7644 13.938C46.6875 13.2342 46.8732 12.5268 47.2857 11.9514C47.6983 11.3761 48.3087 10.9732 48.9999 10.8201V9.75011C48.9999 9.4849 49.1053 9.23054 49.2928 9.04301C49.4803 8.85547 49.7347 8.75011 49.9999 8.75011C50.2651 8.75011 50.5195 8.85547 50.707 9.04301C50.8946 9.23054 50.9999 9.4849 50.9999 9.75011V10.7801C51.6147 10.839 52.1856 11.1244 52.6015 11.581C53.0174 12.0376 53.2485 12.6325 53.2499 13.2501C53.2499 13.5153 53.1446 13.7697 52.957 13.9572C52.7695 14.1448 52.5151 14.2501 52.2499 14.2501C51.9847 14.2501 51.7303 14.1448 51.5428 13.9572C51.3553 13.7697 51.2499 13.5153 51.2499 13.2501C51.2499 13.1175 51.1972 12.9903 51.1035 12.8966C51.0097 12.8028 50.8825 12.7501 50.7499 12.7501H49.6199C49.3879 12.7501 49.1653 12.8423 49.0012 13.0064C48.8371 13.1705 48.7449 13.393 48.7449 13.6251C48.7449 13.8572 48.8371 14.0797 49.0012 14.2438C49.1653 14.4079 49.3879 14.5001 49.6199 14.5001H50.3799C51.0879 14.5005 51.7708 14.7622 52.2978 15.235C52.8247 15.7078 53.1586 16.3585 53.2355 17.0623C53.3123 17.7661 53.1266 18.4734 52.7141 19.0488C52.3015 19.6242 51.6911 20.027 50.9999 20.1801V21.2501C50.9999 21.5153 50.8946 21.7697 50.707 21.9572C50.5195 22.1448 50.2651 22.2501 49.9999 22.2501C49.7347 22.2501 49.4803 22.1448 49.2928 21.9572C49.1053 21.7697 48.9999 21.5153 48.9999 21.2501V20.2201C48.3851 20.1613 47.8143 19.8758 47.3984 19.4192C46.9825 18.9627 46.7513 18.3677 46.7499 17.7501C46.7499 17.4849 46.8553 17.2305 47.0428 17.043C47.2303 16.8555 47.4847 16.7501 47.7499 16.7501C48.0151 16.7501 48.2695 16.8555 48.457 17.043C48.6446 17.2305 48.7499 17.4849 48.7499 17.7501C48.7499 17.8827 48.8026 18.0099 48.8964 18.1037C48.9901 18.1974 49.1173 18.2501 49.2499 18.2501H50.3799C50.612 18.2501 50.8345 18.1579 50.9986 17.9938C51.1627 17.8297 51.2549 17.6072 51.2549 17.3751C51.2549 17.143 51.1627 16.9205 50.9986 16.7564C50.8345 16.5923 50.612 16.5001 50.3799 16.5001ZM43.9999 30.0001C43.205 29.9977 42.4433 29.6809 41.8812 29.1188C41.3191 28.5567 41.0023 27.795 40.9999 27.0001H58.9999C58.9975 27.795 58.6807 28.5567 58.1186 29.1188C57.5565 29.6809 56.7948 29.9977 55.9999 30.0001H43.9999ZM56.7799 35.2601C57.2981 35.1534 57.8375 35.2553 58.2811 35.5435C58.7247 35.8318 59.0369 36.2833 59.1499 36.8001C59.2526 37.3191 59.1493 37.8577 58.8618 38.3019C58.5744 38.7461 58.1254 39.0611 57.6099 39.1801L35.9199 43.7901C35.9668 43.5292 35.9936 43.2651 35.9999 43.0001C35.9947 41.8751 35.6067 40.7854 34.8999 39.9101L56.7799 35.2601ZM30.9999 42.0001C31.1977 42.0001 31.391 42.0588 31.5555 42.1686C31.7199 42.2785 31.8481 42.4347 31.9238 42.6174C31.9995 42.8002 32.0193 43.0012 31.9807 43.1952C31.9421 43.3892 31.8469 43.5674 31.707 43.7072C31.5672 43.8471 31.389 43.9423 31.195 43.9809C31.001 44.0195 30.8 43.9997 30.6172 43.924C30.4345 43.8483 30.2783 43.7201 30.1684 43.5557C30.0586 43.3912 29.9999 43.1979 29.9999 43.0001C29.9999 42.7349 30.1053 42.4805 30.2928 42.293C30.4803 42.1055 30.7347 42.0001 30.9999 42.0001ZM28.9999 47.5801C29.6303 47.8571 30.3114 48.0001 30.9999 48.0001C31.6885 48.0001 32.3695 47.8571 32.9999 47.5801V53.0001H28.9999V47.5801ZM11.9999 11.0001C12.1977 11.0001 12.391 11.0588 12.5555 11.1686C12.7199 11.2785 12.8481 11.4347 12.9238 11.6174C12.9995 11.8002 13.0193 12.0012 12.9807 12.1952C12.9421 12.3892 12.8469 12.5674 12.707 12.7072C12.5672 12.8471 12.389 12.9423 12.195 12.9809C12.001 13.0195 11.8 12.9997 11.6172 12.924C11.4345 12.8483 11.2783 12.7201 11.1685 12.5557C11.0586 12.3912 10.9999 12.1979 10.9999 12.0001C10.9999 11.7349 11.1053 11.4805 11.2928 11.293C11.4803 11.1055 11.7347 11.0001 11.9999 11.0001ZM12.3799 23.5001H11.6199C10.9119 23.4997 10.229 23.2381 9.70205 22.7653C9.17509 22.2925 8.84119 21.6418 8.76437 20.938C8.68755 20.2342 8.8732 19.5268 9.28575 18.9514C9.69829 18.3761 10.3087 17.9732 10.9999 17.8201V16.7501C10.9999 16.4849 11.1053 16.2305 11.2928 16.043C11.4803 15.8555 11.7347 15.7501 11.9999 15.7501C12.2651 15.7501 12.5195 15.8555 12.707 16.043C12.8946 16.2305 12.9999 16.4849 12.9999 16.7501V17.7801C13.6147 17.839 14.1856 18.1244 14.6015 18.581C15.0174 19.0376 15.2485 19.6325 15.2499 20.2501C15.2499 20.5153 15.1446 20.7697 14.957 20.9572C14.7695 21.1448 14.5151 21.2501 14.2499 21.2501C13.9847 21.2501 13.7303 21.1448 13.5428 20.9572C13.3553 20.7697 13.2499 20.5153 13.2499 20.2501C13.2499 20.1175 13.1972 19.9903 13.1035 19.8966C13.0097 19.8028 12.8825 19.7501 12.7499 19.7501H11.6199C11.3879 19.7501 11.1653 19.8423 11.0012 20.0064C10.8371 20.1705 10.7449 20.393 10.7449 20.6251C10.7449 20.8572 10.8371 21.0797 11.0012 21.2438C11.1653 21.4079 11.3879 21.5001 11.6199 21.5001H12.3799C13.0879 21.5005 13.7708 21.7622 14.2978 22.235C14.8247 22.7078 15.1586 23.3585 15.2355 24.0623C15.3123 24.7661 15.1266 25.4734 14.7141 26.0488C14.3015 26.6242 13.6911 27.027 12.9999 27.1801V28.2501C12.9999 28.5153 12.8946 28.7697 12.707 28.9572C12.5195 29.1448 12.2651 29.2501 11.9999 29.2501C11.7347 29.2501 11.4803 29.1448 11.2928 28.9572C11.1053 28.7697 10.9999 28.5153 10.9999 28.2501V27.2201C10.3851 27.1613 9.81426 26.8758 9.39837 26.4192C8.98248 25.9627 8.75133 25.3677 8.74992 24.7501C8.74992 24.4849 8.85528 24.2305 9.04281 24.043C9.23035 23.8555 9.4847 23.7501 9.74992 23.7501C10.0151 23.7501 10.2695 23.8555 10.457 24.043C10.6446 24.2305 10.7499 24.4849 10.7499 24.7501C10.7499 24.8827 10.8026 25.0099 10.8964 25.1037C10.9901 25.1974 11.1173 25.2501 11.2499 25.2501H12.3799C12.612 25.2501 12.8345 25.1579 12.9986 24.9938C13.1627 24.8297 13.2549 24.6072 13.2549 24.3751C13.2549 24.143 13.1627 23.9205 12.9986 23.7564C12.8345 23.5923 12.612 23.5001 12.3799 23.5001ZM5.99992 37.0001C5.205 36.9977 4.44332 36.6809 3.88122 36.1188C3.31913 35.5567 3.00229 34.795 2.99992 34.0001H20.9999C20.9975 34.795 20.6807 35.5567 20.1186 36.1188C19.5565 36.6809 18.7948 36.9977 17.9999 37.0001H5.99992ZM4.14992 46.4501L26.1699 41.7701C25.9876 42.4365 25.9513 43.1344 26.0635 43.8161C26.1757 44.4978 26.4337 45.1473 26.8199 45.7201L4.97992 50.3601C4.71906 50.4259 4.44761 50.4384 4.18181 50.3969C3.91602 50.3553 3.66133 50.2605 3.43301 50.1183C3.20468 49.976 3.00741 49.7891 2.853 49.5688C2.69858 49.3485 2.5902 49.0993 2.53434 48.8362C2.47847 48.573 2.47628 48.3013 2.52788 48.0372C2.57948 47.7732 2.68382 47.5223 2.83466 47.2995C2.98549 47.0768 3.17972 46.8867 3.40571 46.7408C3.63171 46.5948 3.88483 46.496 4.14992 46.4501Z" fill="white"/>
</svg>

