<svg width="348" height="348" viewBox="0 0 348 348" fill="none" xmlns="http://www.w3.org/2000/svg">
<path d="M174 200.5C214.041 200.5 246.5 168.041 246.5 128C246.5 87.9594 214.041 55.5 174 55.5C133.959 55.5 101.5 87.9594 101.5 128C101.5 168.041 133.959 200.5 174 200.5Z" fill="white"/>
<path d="M174 0C78 0 0 77.8 0 174C0 270 77.8 348 174 348C270.2 348 348 270.2 348 174C348 78 270 0 174 0ZM291.2 282.3V277C291.2 243.2 263.7 215.6 229.8 215.6H116.9C83.1 215.6 55.5 243.1 55.5 277V281.3C29.8 253 14.1 215.4 14.1 174C14.1 85.9 85.6 14.4 173.7 14.4C261.8 14.4 333.4 85.9 333.4 174C333.6 215.9 317.7 253.8 291.2 282.3Z" fill="white"/>
</svg>
